# xmcd
#
# Track frame offsets: 
#        150
#        15352
#        32490
#        51715
#        71222
#        89173
#        103635
#        122748
#        143965
#        156869
#        175966
#        190362
#        207690
#
# Disc length: 2939 seconds
#
# Revision: 0
# Processed by: cddbd v1.5PL3 Copyright (c) Steve Scherf et al.
# Submitted via: ExactAudioCopy v0.95a3
#
DISCID=c70b790d
DTITLE=Wayne Law - Lessons
DYEAR=2002
DGENRE=Country
TTITLE0=Up
TTITLE1=Under the Weather
TTITLE2=Deeper Than That
TTITLE3=House Full Of Angels
TTITLE4=Just For Me
TTITLE5=Two Ton Chance
TTITLE6=High On a Lucky Roll
TTITLE7=The Lesson
TTITLE8=Sweet Sweet Wine
TTITLE9=Heart On a Hanger
TTITLE10=If You Wear The Hat
TTITLE11=Of All The Things I Could've Been
TTITLE12=A Country Song
EXTD=
EXTT0=
EXTT1=
EXTT2=
EXTT3=
EXTT4=
EXTT5=
EXTT6=
EXTT7=
EXTT8=
EXTT9=
EXTT10=
EXTT11=
EXTT12=
PLAYORDER=
